# xmcd CD database file
#
# Track frame offsets:
#	150
#	26180
#	55545
#	91675
#	119882
#	153800
#
# Disc length: 2292 seconds
#
# Revision: 0
# Processed by: cddbd v1.4PL0 Copyright (c) Steve Scherf et al.
# Submitted via: Feurio! 1.63 - http://www.feurio.com
#
DISCID=4208f206
DTITLE=Dave Goodman Band - Live '96
DYEAR=1996
DGENRE=blues
TTITLE0=Let It Go
TTITLE1=Little Jimi
TTITLE2=Fanta Fé
TTITLE3=My Only Friend
TTITLE4=Down To The Line
TTITLE5=Hard, Sad And Lonely Time
EXTD=Bear Family Records
EXTT0=
EXTT1=
EXTT2=
EXTT3=
EXTT4=
EXTT5=
PLAYORDER=
